<svg width="16" height="16" viewBox="0 0 16 16" fill="none" xmlns="http://www.w3.org/2000/svg">
<path d="M15.5 10H13V7.5C13 7.36739 12.9473 7.24021 12.8536 7.14645C12.7598 7.05268 12.6326 7 12.5 7H8.5V5H10.5C10.6326 5 10.7598 4.94732 10.8536 4.85355C10.9473 4.75979 11 4.63261 11 4.5V0.5C11 0.367392 10.9473 0.240215 10.8536 0.146447C10.7598 0.0526784 10.6326 0 10.5 0L5.5 0C5.36739 0 5.24021 0.0526784 5.14645 0.146447C5.05268 0.240215 5 0.367392 5 0.5V4.5C5 4.63261 5.05268 4.75979 5.14645 4.85355C5.24021 4.94732 5.36739 5 5.5 5H7.5V7H3.5C3.36739 7 3.24021 7.05268 3.14645 7.14645C3.05268 7.24021 3 7.36739 3 7.5V10H0.5C0.367392 10 0.240215 10.0527 0.146447 10.1464C0.0526784 10.2402 0 10.3674 0 10.5L0 15.5C0 15.6326 0.0526784 15.7598 0.146447 15.8536C0.240215 15.9473 0.367392 16 0.5 16H6.5C6.63261 16 6.75979 15.9473 6.85355 15.8536C6.94732 15.7598 7 15.6326 7 15.5V10.5C7 10.3674 6.94732 10.2402 6.85355 10.1464C6.75979 10.0527 6.63261 10 6.5 10H4V8H12V10H9.5C9.36739 10 9.24021 10.0527 9.14645 10.1464C9.05268 10.2402 9 10.3674 9 10.5V15.5C9 15.6326 9.05268 15.7598 9.14645 15.8536C9.24021 15.9473 9.36739 16 9.5 16H15.5C15.6326 16 15.7598 15.9473 15.8536 15.8536C15.9473 15.7598 16 15.6326 16 15.5V10.5C16 10.3674 15.9473 10.2402 15.8536 10.1464C15.7598 10.0527 15.6326 10 15.5 10ZM6 1H10V4H6V1ZM6 15H1V11H6V15ZM15 15H10V11H15V15Z" fill="white"/>
</svg>
