<svg width="39" height="28" viewBox="0 0 39 28" fill="none" xmlns="http://www.w3.org/2000/svg">
<path d="M16.1465 22.9443C17.9562 21.1527 20.8855 21.1527 22.6953 22.9443L23.4131 23.6542L19.4209 27.6073L15.4287 23.6542L16.1465 22.9443Z" fill="white"/>
<path d="M11.0039 17.8534C15.6538 13.2483 23.1899 13.2483 27.8398 17.8534L28.5576 18.5644L24.5645 22.5165L23.8613 21.8202C21.4144 19.3979 17.4272 19.3984 14.9824 21.8202L14.2793 22.5165L10.2861 18.5644L11.0039 17.8534Z" fill="white"/>
<path d="M5.86035 12.7616C13.3504 5.34686 25.4914 5.34686 32.9814 12.7616L33.6992 13.4716L29.707 17.4247L29.0039 16.7275C23.7225 11.4991 15.1223 11.4998 9.83887 16.7284L9.13477 17.4247L5.14258 13.4716L5.86035 12.7616Z" fill="white"/>
<path d="M0.71875 7.67082C11.0489 -2.55699 27.7931 -2.55688 38.125 7.67082L38.8438 8.38175L34.8486 12.3339L34.1455 11.6376C26.0294 3.60133 12.8143 3.60115 4.69629 11.6376L3.99316 12.3339L0 8.38175L0.71875 7.67082Z" fill="white" fill-opacity="0.07"/>
</svg>
